<svg xmlns="http://www.w3.org/2000/svg" viewBox="575 931 832 201" role="img" aria-label="GEMP"><path fill="#85e199" d="M659.725 1003.86C663.322 993.469 667.406 984.911 674.029 976.021A91.43 91.43 0 0 1 734.943 940.444C768.255 935.822 793.55 944.132 819.707 963.81A1393 1393 0 0 0 794.848 993.873C765.486 968.559 725.071 966.923 703.427 1003.67Q757.242 1004.015 811.058 1003.79C822.05 1003.78 852.921 1003.08 862.691 1004.33C864.692 999.919 863.526 951.317 863.679 942.215C907.444 942.231 954.941 941.32 998.395 942.335L998.421 977.484L902.919 977.593L903.017 1003.9C929.29 1003.8 959.605 1003.07 985.611 1003.96C987.512 1020.42 987.521 1040.58 986.813 1057.24L985.032 1058.86C968.362 1058.5 940.418 1061.49 924.623 1059.08C918.409 1059.55 909.376 1059.37 902.936 1059.42L902.984 1086.47L1000 1086.44L999.971 1121.21L863.735 1121.21C863.34 1100.76 863.643 1079.65 863.685 1059.15L854.298 1059.05C845.475 1059.43 834.052 1059 825.939 1059.58L825.946 1095.91C771.369 1142.66 683.573 1133.68 659.148 1059.21C653.877 1040.52 654.802 1022.42 659.725 1003.86ZM702.921 1059.73C721.976 1093.1 757.555 1095.79 788.056 1077.99Q787.993 1068.63 788.207 1059.27C759.713 1059.95 731.307 1058.94 702.921 1059.73Z"/><path fill="#003663" d="M659.725 1003.86C663.322 993.469 667.406 984.911 674.029 976.021A91.43 91.43 0 0 1 734.943 940.444C768.255 935.822 793.55 944.132 819.707 963.81A1393 1393 0 0 0 794.848 993.873C765.486 968.559 725.071 966.923 703.427 1003.67C695.915 1019.86 693.408 1043.73 702.921 1059.73C721.976 1093.1 757.555 1095.79 788.056 1077.99Q787.993 1068.63 788.207 1059.27C787.919 1055.64 788.521 1054.82 786.638 1052.56C777.333 1051.39 758.535 1052.21 748.267 1052.2L748.248 1018.21L826.007 1018.21L825.939 1059.58L825.946 1095.91C771.369 1142.66 683.573 1133.68 659.148 1059.21C653.877 1040.52 654.802 1022.42 659.725 1003.86ZM1035.96 942.446C1049.78 942.379 1063.6 942.429 1077.41 942.594L1124.44 1017.96L1171.39 942.581C1185.55 942.371 1199.72 942.379 1213.89 942.607L1213.84 1121.14C1200.91 1121.02 1187.83 1121.16 1174.88 1121.2L1174.89 1044.5L1174.75 1004.73C1157.88 1028.34 1140.12 1057 1123.82 1081.47A6922 6922 0 0 0 1073.8 1005.75C1073.12 1043.94 1073.69 1082.84 1073.44 1121.14L1035.07 1121.18C1035.06 1103.44 1034.17 946.325 1035.96 942.446ZM1256.8 942.454C1287.75 942.361 1345.34 937.566 1370.73 952.84A55.2 55.2 0 0 1 1396.24 987.441C1406.08 1027.21 1383.97 1057.12 1344.91 1065.71C1330.46 1068.38 1310.92 1067.69 1295.95 1067.65L1295.97 1121.16C1282.92 1121.1 1269.87 1121.11 1256.83 1121.2ZM1295.98 1032.24C1313.21 1032.45 1338.51 1035.83 1350.79 1024.17C1357.6 1016.05 1359.09 1011.26 1358.09 1000.48C1355.46 972.228 1315.81 977.652 1295.97 977.923Z"/><path fill="#85e199" d="M659.725 1003.86C654.802 1022.42 653.877 1040.52 659.148 1059.21C648.684 1059.59 592.88 1060.13 585.151 1058.35C580.939 1051.86 583.027 1012.8 584.447 1004.06C589.6 1005.13 603.794 1004.03 610.093 1003.96C626.637 1003.8 643.181 1003.77 659.725 1003.86Z"/></svg>